<?xml version="1.0" encoding="utf-8" standalone="no"?>
<!DOCTYPE svg PUBLIC "-//W3C//DTD SVG 1.1//EN"
  "http://www.w3.org/Graphics/SVG/1.1/DTD/svg11.dtd">
<svg xmlns:xlink="http://www.w3.org/1999/xlink" width="518.4pt" height="194.4pt" viewBox="0 0 518.4 194.4" xmlns="http://www.w3.org/2000/svg" version="1.1">
 <metadata>
  <rdf:RDF xmlns:dc="http://purl.org/dc/elements/1.1/" xmlns:cc="http://creativecommons.org/ns#" xmlns:rdf="http://www.w3.org/1999/02/22-rdf-syntax-ns#">
   <cc:Work>
    <dc:type rdf:resource="http://purl.org/dc/dcmitype/StillImage"/>
    <dc:date>2026-09-22T20:24:40.850634</dc:date>
    <dc:format>image/svg+xml</dc:format>
    <dc:creator>
     <cc:Agent>
      <dc:title>Matplotlib v3.11.1, https://matplotlib.org/</dc:title>
     </cc:Agent>
    </dc:creator>
   </cc:Work>
  </rdf:RDF>
 </metadata>
 <defs>
  <style type="text/css">*{stroke-linejoin: round; stroke-linecap: butt}</style>
 </defs>
 <g id="figure_1">
  <g id="patch_1">
   <path d="M 0 194.4 
L 518.4 194.4 
L 518.4 0 
L 0 0 
z
" style="fill: #ffffff"/>
  </g>
  <g id="axes_1">
   <g id="patch_2">
    <path d="M 38.88 149.688 
L 165.677838 149.688 
L 165.677838 52.488 
L 38.88 52.488 
z
" style="fill: #ffffff"/>
   </g>
   <g id="matplotlib.axis_1">
    <g id="xtick_1">
     <g id="line2d_1">
      <defs>
       <path id="mab9b1c6d35" d="M 0 0 
L 0 3.5 
" style="stroke: #000000; stroke-width: 0.8"/>
      </defs>
      <g>
       <use xlink:href="#mab9b1c6d35" x="44.643538" y="149.688" style="stroke: #000000; stroke-width: 0.8"/>
      </g>
     </g>
     <g id="text_1">
      <text style="font-size: 7px; font-family: 'DejaVu Sans', sans-serif; text-anchor: middle" x="44.643538" y="162.006359" transform="rotate(-0 44.643538 162.006359)">0.0</text>
     </g>
    </g>
    <g id="xtick_2">
     <g id="line2d_2">
      <g>
       <use xlink:href="#mab9b1c6d35" x="73.461229" y="149.688" style="stroke: #000000; stroke-width: 0.8"/>
      </g>
     </g>
     <g id="text_2">
      <text style="font-size: 7px; font-family: 'DejaVu Sans', sans-serif; text-anchor: middle" x="73.461229" y="162.006359" transform="rotate(-0 73.461229 162.006359)">0.5</text>
     </g>
    </g>
    <g id="xtick_3">
     <g id="line2d_3">
      <g>
       <use xlink:href="#mab9b1c6d35" x="102.278919" y="149.688" style="stroke: #000000; stroke-width: 0.8"/>
      </g>
     </g>
     <g id="text_3">
      <text style="font-size: 7px; font-family: 'DejaVu Sans', sans-serif; text-anchor: middle" x="102.278919" y="162.006359" transform="rotate(-0 102.278919 162.006359)">1.0</text>
     </g>
    </g>
    <g id="xtick_4">
     <g id="line2d_4">
      <g>
       <use xlink:href="#mab9b1c6d35" x="159.9143" y="149.688" style="stroke: #000000; stroke-width: 0.8"/>
      </g>
     </g>
     <g id="text_4">
      <text style="font-size: 7px; font-family: 'DejaVu Sans', sans-serif; text-anchor: middle" x="159.9143" y="162.006359" transform="rotate(-0 159.9143 162.006359)">2.0</text>
     </g>
    </g>
    <g id="text_5">
     <text style="font-size: 7.5px; font-family: 'DejaVu Sans', sans-serif; text-anchor: middle; fill: #243747" x="102.278919" y="173.386828" transform="rotate(-0 102.278919 173.386828)">Perturbation level</text>
    </g>
   </g>
   <g id="matplotlib.axis_2">
    <g id="ytick_1">
     <g id="line2d_5">
      <defs>
       <path id="m3d586e3230" d="M 0 0 
L -3.5 0 
" style="stroke: #000000; stroke-width: 0.8"/>
      </defs>
      <g>
       <use xlink:href="#m3d586e3230" x="38.88" y="142.434269" style="stroke: #000000; stroke-width: 0.8"/>
      </g>
     </g>
     <g id="text_6">
      <text style="font-size: 7px; font-family: 'DejaVu Sans', sans-serif; text-anchor: end" x="31.88" y="145.093448" transform="rotate(-0 31.88 145.093448)">0.4</text>
     </g>
    </g>
    <g id="ytick_2">
     <g id="line2d_6">
      <g>
       <use xlink:href="#m3d586e3230" x="38.88" y="113.419343" style="stroke: #000000; stroke-width: 0.8"/>
      </g>
     </g>
     <g id="text_7">
      <text style="font-size: 7px; font-family: 'DejaVu Sans', sans-serif; text-anchor: end" x="31.88" y="116.078523" transform="rotate(-0 31.88 116.078523)">0.6</text>
     </g>
    </g>
    <g id="ytick_3">
     <g id="line2d_7">
      <g>
       <use xlink:href="#m3d586e3230" x="38.88" y="84.404418" style="stroke: #000000; stroke-width: 0.8"/>
      </g>
     </g>
     <g id="text_8">
      <text style="font-size: 7px; font-family: 'DejaVu Sans', sans-serif; text-anchor: end" x="31.88" y="87.063598" transform="rotate(-0 31.88 87.063598)">0.8</text>
     </g>
    </g>
    <g id="ytick_4">
     <g id="line2d_8">
      <g>
       <use xlink:href="#m3d586e3230" x="38.88" y="55.389493" style="stroke: #000000; stroke-width: 0.8"/>
      </g>
     </g>
     <g id="text_9">
      <text style="font-size: 7px; font-family: 'DejaVu Sans', sans-serif; text-anchor: end" x="31.88" y="58.048672" transform="rotate(-0 31.88 58.048672)">1.0</text>
     </g>
    </g>
    <g id="text_10">
     <text style="font-size: 7.5px; font-family: 'DejaVu Sans', sans-serif; text-anchor: middle; fill: #243747" x="14.946055" y="101.088" transform="rotate(-90 14.946055 101.088)">ROC AUC</text>
    </g>
   </g>
   <g id="FillBetweenPolyCollection_1">
    <defs>
     <path id="mc75353ca47" d="M 44.643538 -132.092503 
L 44.643538 -109.914194 
L 59.052383 -110.422871 
L 73.461229 -109.744635 
L 102.278919 -110.388959 
L 159.9143 -110.422871 
L 159.9143 -132.295974 
L 159.9143 -132.295974 
L 102.278919 -132.295974 
L 73.461229 -131.889032 
L 59.052383 -132.058591 
L 44.643538 -132.092503 
z
"/>
    </defs>
    <g clip-path="url(#p5d4269da5e)">
     <use xlink:href="#mc75353ca47" x="0" y="194.4" style="fill: #2676b8; fill-opacity: 0.1"/>
    </g>
   </g>
   <g id="FillBetweenPolyCollection_2">
    <defs>
     <path id="m3673b5346b" d="M 44.643538 -132.295974 
L 44.643538 -109.507252 
L 59.052383 -110.287223 
L 73.461229 -109.608988 
L 102.278919 -109.710723 
L 159.9143 -110.659405 
L 159.9143 -132.80465 
L 159.9143 -132.80465 
L 102.278919 -132.567268 
L 73.461229 -132.160326 
L 59.052383 -131.922944 
L 44.643538 -132.295974 
z
"/>
    </defs>
    <g clip-path="url(#p5d4269da5e)">
     <use xlink:href="#m3673b5346b" x="0" y="194.4" style="fill: #328c86; fill-opacity: 0.1"/>
    </g>
   </g>
   <g id="FillBetweenPolyCollection_3">
    <defs>
     <path id="m89e145db49" d="M 44.643538 -130.566472 
L 44.643538 -107.470002 
L 59.052383 -109.032487 
L 73.461229 -109.608988 
L 102.278919 -55.739689 
L 159.9143 -54.767269 
L 159.9143 -82.80172 
L 159.9143 -82.80172 
L 102.278919 -90.940549 
L 73.461229 -131.685561 
L 59.052383 -131.448179 
L 44.643538 -130.566472 
z
"/>
    </defs>
    <g clip-path="url(#p5d4269da5e)">
     <use xlink:href="#m89e145db49" x="0" y="194.4" style="fill: #937e70; fill-opacity: 0.1"/>
    </g>
   </g>
   <g id="line2d_9">
    <path d="M 44.643538 72.074092 
L 59.052383 71.938445 
L 73.461229 72.41321 
L 102.278919 71.802798 
L 159.9143 71.768886 
" clip-path="url(#p5d4269da5e)" style="fill: none; stroke: #2676b8; stroke-width: 1.4; stroke-linecap: square"/>
    <defs>
     <path id="m54c9f03004" d="M 0 1.5 
C 0.397805 1.5 0.77937 1.341951 1.06066 1.06066 
C 1.341951 0.77937 1.5 0.397805 1.5 0 
C 1.5 -0.397805 1.341951 -0.77937 1.06066 -1.06066 
C 0.77937 -1.341951 0.397805 -1.5 0 -1.5 
C -0.397805 -1.5 -0.77937 -1.341951 -1.06066 -1.06066 
C -1.341951 -0.77937 -1.5 -0.397805 -1.5 0 
C -1.5 0.397805 -1.341951 0.77937 -1.06066 1.06066 
C -0.77937 1.341951 -0.397805 1.5 0 1.5 
z
" style="stroke: #2676b8"/>
    </defs>
    <g clip-path="url(#p5d4269da5e)">
     <use xlink:href="#m54c9f03004" x="44.643538" y="72.074092" style="fill: #2676b8; stroke: #2676b8"/>
     <use xlink:href="#m54c9f03004" x="59.052383" y="71.938445" style="fill: #2676b8; stroke: #2676b8"/>
     <use xlink:href="#m54c9f03004" x="73.461229" y="72.41321" style="fill: #2676b8; stroke: #2676b8"/>
     <use xlink:href="#m54c9f03004" x="102.278919" y="71.802798" style="fill: #2676b8; stroke: #2676b8"/>
     <use xlink:href="#m54c9f03004" x="159.9143" y="71.768886" style="fill: #2676b8; stroke: #2676b8"/>
    </g>
   </g>
   <g id="line2d_10">
    <path d="M 44.643538 72.277563 
L 59.052383 72.175827 
L 73.461229 72.277563 
L 102.278919 71.836709 
L 159.9143 71.260209 
" clip-path="url(#p5d4269da5e)" style="fill: none; stroke: #328c86; stroke-width: 1.4; stroke-linecap: square"/>
    <defs>
     <path id="m96347385e3" d="M 0 1.5 
C 0.397805 1.5 0.77937 1.341951 1.06066 1.06066 
C 1.341951 0.77937 1.5 0.397805 1.5 0 
C 1.5 -0.397805 1.341951 -0.77937 1.06066 -1.06066 
C 0.77937 -1.341951 0.397805 -1.5 0 -1.5 
C -0.397805 -1.5 -0.77937 -1.341951 -1.06066 -1.06066 
C -1.341951 -0.77937 -1.5 -0.397805 -1.5 0 
C -1.5 0.397805 -1.341951 0.77937 -1.06066 1.06066 
C -0.77937 1.341951 -0.397805 1.5 0 1.5 
z
" style="stroke: #328c86"/>
    </defs>
    <g clip-path="url(#p5d4269da5e)">
     <use xlink:href="#m96347385e3" x="44.643538" y="72.277563" style="fill: #328c86; stroke: #328c86"/>
     <use xlink:href="#m96347385e3" x="59.052383" y="72.175827" style="fill: #328c86; stroke: #328c86"/>
     <use xlink:href="#m96347385e3" x="73.461229" y="72.277563" style="fill: #328c86; stroke: #328c86"/>
     <use xlink:href="#m96347385e3" x="102.278919" y="71.836709" style="fill: #328c86; stroke: #328c86"/>
     <use xlink:href="#m96347385e3" x="159.9143" y="71.260209" style="fill: #328c86; stroke: #328c86"/>
    </g>
   </g>
   <g id="line2d_11">
    <path d="M 44.643538 74.210535 
L 59.052383 72.98971 
L 73.461229 72.548857 
L 102.278919 121.008801 
L 159.9143 126.197305 
" clip-path="url(#p5d4269da5e)" style="fill: none; stroke-dasharray: 5.18,2.24; stroke-dashoffset: 0; stroke: #937e70; stroke-width: 1.4"/>
    <defs>
     <path id="m6aa8427f97" d="M 0 1.5 
C 0.397805 1.5 0.77937 1.341951 1.06066 1.06066 
C 1.341951 0.77937 1.5 0.397805 1.5 0 
C 1.5 -0.397805 1.341951 -0.77937 1.06066 -1.06066 
C 0.77937 -1.341951 0.397805 -1.5 0 -1.5 
C -0.397805 -1.5 -0.77937 -1.341951 -1.06066 -1.06066 
C -1.341951 -0.77937 -1.5 -0.397805 -1.5 0 
C -1.5 0.397805 -1.341951 0.77937 -1.06066 1.06066 
C -0.77937 1.341951 -0.397805 1.5 0 1.5 
z
" style="stroke: #937e70"/>
    </defs>
    <g clip-path="url(#p5d4269da5e)">
     <use xlink:href="#m6aa8427f97" x="44.643538" y="74.210535" style="fill: #937e70; stroke: #937e70"/>
     <use xlink:href="#m6aa8427f97" x="59.052383" y="72.98971" style="fill: #937e70; stroke: #937e70"/>
     <use xlink:href="#m6aa8427f97" x="73.461229" y="72.548857" style="fill: #937e70; stroke: #937e70"/>
     <use xlink:href="#m6aa8427f97" x="102.278919" y="121.008801" style="fill: #937e70; stroke: #937e70"/>
     <use xlink:href="#m6aa8427f97" x="159.9143" y="126.197305" style="fill: #937e70; stroke: #937e70"/>
    </g>
   </g>
   <g id="patch_3">
    <path d="M 38.88 149.688 
L 38.88 52.488 
" style="fill: none; stroke: #7c8992; stroke-width: 0.8; stroke-linejoin: miter; stroke-linecap: square"/>
   </g>
   <g id="patch_4">
    <path d="M 38.88 149.688 
L 165.677838 149.688 
" style="fill: none; stroke: #7c8992; stroke-width: 0.8; stroke-linejoin: miter; stroke-linecap: square"/>
   </g>
   <g id="text_11">
    <text style="font-weight: 700; font-size: 8px; font-family: 'DejaVu Sans', sans-serif; text-anchor: start; fill: #243747" x="38.88" y="42.488" transform="rotate(-0 38.88 42.488)">a  Ultrasound</text>
   </g>
  </g>
  <g id="axes_2">
   <g id="patch_5">
    <path d="M 210.057081 149.688 
L 336.854919 149.688 
L 336.854919 52.488 
L 210.057081 52.488 
z
" style="fill: #ffffff"/>
   </g>
   <g id="matplotlib.axis_3">
    <g id="xtick_5">
     <g id="line2d_12">
      <g>
       <use xlink:href="#mab9b1c6d35" x="215.820619" y="149.688" style="stroke: #000000; stroke-width: 0.8"/>
      </g>
     </g>
     <g id="text_12">
      <text style="font-size: 7px; font-family: 'DejaVu Sans', sans-serif; text-anchor: middle" x="215.820619" y="162.006359" transform="rotate(-0 215.820619 162.006359)">0.0</text>
     </g>
    </g>
    <g id="xtick_6">
     <g id="line2d_13">
      <g>
       <use xlink:href="#mab9b1c6d35" x="244.63831" y="149.688" style="stroke: #000000; stroke-width: 0.8"/>
      </g>
     </g>
     <g id="text_13">
      <text style="font-size: 7px; font-family: 'DejaVu Sans', sans-serif; text-anchor: middle" x="244.63831" y="162.006359" transform="rotate(-0 244.63831 162.006359)">0.5</text>
     </g>
    </g>
    <g id="xtick_7">
     <g id="line2d_14">
      <g>
       <use xlink:href="#mab9b1c6d35" x="273.456" y="149.688" style="stroke: #000000; stroke-width: 0.8"/>
      </g>
     </g>
     <g id="text_14">
      <text style="font-size: 7px; font-family: 'DejaVu Sans', sans-serif; text-anchor: middle" x="273.456" y="162.006359" transform="rotate(-0 273.456 162.006359)">1.0</text>
     </g>
    </g>
    <g id="xtick_8">
     <g id="line2d_15">
      <g>
       <use xlink:href="#mab9b1c6d35" x="331.091381" y="149.688" style="stroke: #000000; stroke-width: 0.8"/>
      </g>
     </g>
     <g id="text_15">
      <text style="font-size: 7px; font-family: 'DejaVu Sans', sans-serif; text-anchor: middle" x="331.091381" y="162.006359" transform="rotate(-0 331.091381 162.006359)">2.0</text>
     </g>
    </g>
    <g id="text_16">
     <text style="font-size: 7.5px; font-family: 'DejaVu Sans', sans-serif; text-anchor: middle; fill: #243747" x="273.456" y="173.386828" transform="rotate(-0 273.456 173.386828)">Perturbation level</text>
    </g>
   </g>
   <g id="matplotlib.axis_4">
    <g id="ytick_5">
     <g id="line2d_16">
      <g>
       <use xlink:href="#m3d586e3230" x="210.057081" y="142.434269" style="stroke: #000000; stroke-width: 0.8"/>
      </g>
     </g>
     <g id="text_17">
      <text style="font-size: 7px; font-family: 'DejaVu Sans', sans-serif; text-anchor: end" x="203.057081" y="145.093448" transform="rotate(-0 203.057081 145.093448)">0.4</text>
     </g>
    </g>
    <g id="ytick_6">
     <g id="line2d_17">
      <g>
       <use xlink:href="#m3d586e3230" x="210.057081" y="113.419343" style="stroke: #000000; stroke-width: 0.8"/>
      </g>
     </g>
     <g id="text_18">
      <text style="font-size: 7px; font-family: 'DejaVu Sans', sans-serif; text-anchor: end" x="203.057081" y="116.078523" transform="rotate(-0 203.057081 116.078523)">0.6</text>
     </g>
    </g>
    <g id="ytick_7">
     <g id="line2d_18">
      <g>
       <use xlink:href="#m3d586e3230" x="210.057081" y="84.404418" style="stroke: #000000; stroke-width: 0.8"/>
      </g>
     </g>
     <g id="text_19">
      <text style="font-size: 7px; font-family: 'DejaVu Sans', sans-serif; text-anchor: end" x="203.057081" y="87.063598" transform="rotate(-0 203.057081 87.063598)">0.8</text>
     </g>
    </g>
    <g id="ytick_8">
     <g id="line2d_19">
      <g>
       <use xlink:href="#m3d586e3230" x="210.057081" y="55.389493" style="stroke: #000000; stroke-width: 0.8"/>
      </g>
     </g>
     <g id="text_20">
      <text style="font-size: 7px; font-family: 'DejaVu Sans', sans-serif; text-anchor: end" x="203.057081" y="58.048672" transform="rotate(-0 203.057081 58.048672)">1.0</text>
     </g>
    </g>
    <g id="text_21">
     <text style="font-size: 7.5px; font-family: 'DejaVu Sans', sans-serif; text-anchor: middle; fill: #243747" x="186.123136" y="101.088" transform="rotate(-90 186.123136 101.088)">ROC AUC</text>
    </g>
   </g>
   <g id="FillBetweenPolyCollection_4">
    <defs>
     <path id="m761b13a893" d="M 215.820619 -132.092503 
L 215.820619 -109.914194 
L 230.229464 -110.048993 
L 244.63831 -110.422871 
L 273.456 -111.440224 
L 331.091381 -112.762784 
L 331.091381 -133.211592 
L 331.091381 -133.211592 
L 273.456 -132.60118 
L 244.63831 -132.228998 
L 230.229464 -132.161174 
L 215.820619 -132.092503 
z
"/>
    </defs>
    <g clip-path="url(#pce14dad291)">
     <use xlink:href="#m761b13a893" x="0" y="194.4" style="fill: #2676b8; fill-opacity: 0.1"/>
    </g>
   </g>
   <g id="FillBetweenPolyCollection_5">
    <defs>
     <path id="m84db80252e" d="M 215.820619 -132.295974 
L 215.820619 -109.507252 
L 230.229464 -110.694165 
L 244.63831 -111.033283 
L 273.456 -113.270613 
L 331.091381 -115.136609 
L 331.091381 -133.75418 
L 331.091381 -133.75418 
L 273.456 -133.991563 
L 244.63831 -133.145464 
L 230.229464 -132.906386 
L 215.820619 -132.295974 
z
"/>
    </defs>
    <g clip-path="url(#pce14dad291)">
     <use xlink:href="#m84db80252e" x="0" y="194.4" style="fill: #328c86; fill-opacity: 0.1"/>
    </g>
   </g>
   <g id="FillBetweenPolyCollection_6">
    <defs>
     <path id="m9892e863e5" d="M 215.820619 -130.566472 
L 215.820619 -107.470002 
L 230.229464 -106.963868 
L 244.63831 -105.030896 
L 273.456 -106.554383 
L 331.091381 -106.963868 
L 331.091381 -130.057796 
L 331.091381 -130.057796 
L 273.456 -129.752589 
L 244.63831 -129.074354 
L 230.229464 -130.871678 
L 215.820619 -130.566472 
z
"/>
    </defs>
    <g clip-path="url(#pce14dad291)">
     <use xlink:href="#m9892e863e5" x="0" y="194.4" style="fill: #937e70; fill-opacity: 0.1"/>
    </g>
   </g>
   <g id="line2d_20">
    <path d="M 215.820619 72.074092 
L 230.229464 72.006268 
L 244.63831 71.802798 
L 273.456 71.056738 
L 331.091381 70.208944 
" clip-path="url(#pce14dad291)" style="fill: none; stroke: #2676b8; stroke-width: 1.4; stroke-linecap: square"/>
    <g clip-path="url(#pce14dad291)">
     <use xlink:href="#m54c9f03004" x="215.820619" y="72.074092" style="fill: #2676b8; stroke: #2676b8"/>
     <use xlink:href="#m54c9f03004" x="230.229464" y="72.006268" style="fill: #2676b8; stroke: #2676b8"/>
     <use xlink:href="#m54c9f03004" x="244.63831" y="71.802798" style="fill: #2676b8; stroke: #2676b8"/>
     <use xlink:href="#m54c9f03004" x="273.456" y="71.056738" style="fill: #2676b8; stroke: #2676b8"/>
     <use xlink:href="#m54c9f03004" x="331.091381" y="70.208944" style="fill: #2676b8; stroke: #2676b8"/>
    </g>
   </g>
   <g id="line2d_21">
    <path d="M 215.820619 72.277563 
L 230.229464 71.294121 
L 244.63831 71.022827 
L 273.456 69.428973 
L 331.091381 68.81856 
" clip-path="url(#pce14dad291)" style="fill: none; stroke: #328c86; stroke-width: 1.4; stroke-linecap: square"/>
    <g clip-path="url(#pce14dad291)">
     <use xlink:href="#m96347385e3" x="215.820619" y="72.277563" style="fill: #328c86; stroke: #328c86"/>
     <use xlink:href="#m96347385e3" x="230.229464" y="71.294121" style="fill: #328c86; stroke: #328c86"/>
     <use xlink:href="#m96347385e3" x="244.63831" y="71.022827" style="fill: #328c86; stroke: #328c86"/>
     <use xlink:href="#m96347385e3" x="273.456" y="69.428973" style="fill: #328c86; stroke: #328c86"/>
     <use xlink:href="#m96347385e3" x="331.091381" y="68.81856" style="fill: #328c86; stroke: #328c86"/>
    </g>
   </g>
   <g id="line2d_22">
    <path d="M 215.820619 74.210535 
L 230.229464 74.108799 
L 244.63831 76.109595 
L 273.456 75.024417 
L 331.091381 74.719211 
" clip-path="url(#pce14dad291)" style="fill: none; stroke-dasharray: 5.18,2.24; stroke-dashoffset: 0; stroke: #937e70; stroke-width: 1.4"/>
    <g clip-path="url(#pce14dad291)">
     <use xlink:href="#m6aa8427f97" x="215.820619" y="74.210535" style="fill: #937e70; stroke: #937e70"/>
     <use xlink:href="#m6aa8427f97" x="230.229464" y="74.108799" style="fill: #937e70; stroke: #937e70"/>
     <use xlink:href="#m6aa8427f97" x="244.63831" y="76.109595" style="fill: #937e70; stroke: #937e70"/>
     <use xlink:href="#m6aa8427f97" x="273.456" y="75.024417" style="fill: #937e70; stroke: #937e70"/>
     <use xlink:href="#m6aa8427f97" x="331.091381" y="74.719211" style="fill: #937e70; stroke: #937e70"/>
    </g>
   </g>
   <g id="patch_6">
    <path d="M 210.057081 149.688 
L 210.057081 52.488 
" style="fill: none; stroke: #7c8992; stroke-width: 0.8; stroke-linejoin: miter; stroke-linecap: square"/>
   </g>
   <g id="patch_7">
    <path d="M 210.057081 149.688 
L 336.854919 149.688 
" style="fill: none; stroke: #7c8992; stroke-width: 0.8; stroke-linejoin: miter; stroke-linecap: square"/>
   </g>
   <g id="text_22">
    <text style="font-weight: 700; font-size: 8px; font-family: 'DejaVu Sans', sans-serif; text-anchor: start; fill: #243747" x="210.057081" y="42.488" transform="rotate(-0 210.057081 42.488)">b  sEMG</text>
   </g>
  </g>
  <g id="axes_3">
   <g id="patch_8">
    <path d="M 381.234162 149.688 
L 508.032 149.688 
L 508.032 52.488 
L 381.234162 52.488 
z
" style="fill: #ffffff"/>
   </g>
   <g id="matplotlib.axis_5">
    <g id="xtick_9">
     <g id="line2d_23">
      <g>
       <use xlink:href="#mab9b1c6d35" x="386.9977" y="149.688" style="stroke: #000000; stroke-width: 0.8"/>
      </g>
     </g>
     <g id="text_23">
      <text style="font-size: 7px; font-family: 'DejaVu Sans', sans-serif; text-anchor: middle" x="386.9977" y="162.006359" transform="rotate(-0 386.9977 162.006359)">0.0</text>
     </g>
    </g>
    <g id="xtick_10">
     <g id="line2d_24">
      <g>
       <use xlink:href="#mab9b1c6d35" x="415.815391" y="149.688" style="stroke: #000000; stroke-width: 0.8"/>
      </g>
     </g>
     <g id="text_24">
      <text style="font-size: 7px; font-family: 'DejaVu Sans', sans-serif; text-anchor: middle" x="415.815391" y="162.006359" transform="rotate(-0 415.815391 162.006359)">0.5</text>
     </g>
    </g>
    <g id="xtick_11">
     <g id="line2d_25">
      <g>
       <use xlink:href="#mab9b1c6d35" x="444.633081" y="149.688" style="stroke: #000000; stroke-width: 0.8"/>
      </g>
     </g>
     <g id="text_25">
      <text style="font-size: 7px; font-family: 'DejaVu Sans', sans-serif; text-anchor: middle" x="444.633081" y="162.006359" transform="rotate(-0 444.633081 162.006359)">1.0</text>
     </g>
    </g>
    <g id="xtick_12">
     <g id="line2d_26">
      <g>
       <use xlink:href="#mab9b1c6d35" x="502.268462" y="149.688" style="stroke: #000000; stroke-width: 0.8"/>
      </g>
     </g>
     <g id="text_26">
      <text style="font-size: 7px; font-family: 'DejaVu Sans', sans-serif; text-anchor: middle" x="502.268462" y="162.006359" transform="rotate(-0 502.268462 162.006359)">2.0</text>
     </g>
    </g>
    <g id="text_27">
     <text style="font-size: 7.5px; font-family: 'DejaVu Sans', sans-serif; text-anchor: middle; fill: #243747" x="444.633081" y="173.386828" transform="rotate(-0 444.633081 173.386828)">Perturbation level</text>
    </g>
   </g>
   <g id="matplotlib.axis_6">
    <g id="ytick_9">
     <g id="line2d_27">
      <g>
       <use xlink:href="#m3d586e3230" x="381.234162" y="142.434269" style="stroke: #000000; stroke-width: 0.8"/>
      </g>
     </g>
     <g id="text_28">
      <text style="font-size: 7px; font-family: 'DejaVu Sans', sans-serif; text-anchor: end" x="374.234162" y="145.093448" transform="rotate(-0 374.234162 145.093448)">0.4</text>
     </g>
    </g>
    <g id="ytick_10">
     <g id="line2d_28">
      <g>
       <use xlink:href="#m3d586e3230" x="381.234162" y="113.419343" style="stroke: #000000; stroke-width: 0.8"/>
      </g>
     </g>
     <g id="text_29">
      <text style="font-size: 7px; font-family: 'DejaVu Sans', sans-serif; text-anchor: end" x="374.234162" y="116.078523" transform="rotate(-0 374.234162 116.078523)">0.6</text>
     </g>
    </g>
    <g id="ytick_11">
     <g id="line2d_29">
      <g>
       <use xlink:href="#m3d586e3230" x="381.234162" y="84.404418" style="stroke: #000000; stroke-width: 0.8"/>
      </g>
     </g>
     <g id="text_30">
      <text style="font-size: 7px; font-family: 'DejaVu Sans', sans-serif; text-anchor: end" x="374.234162" y="87.063598" transform="rotate(-0 374.234162 87.063598)">0.8</text>
     </g>
    </g>
    <g id="ytick_12">
     <g id="line2d_30">
      <g>
       <use xlink:href="#m3d586e3230" x="381.234162" y="55.389493" style="stroke: #000000; stroke-width: 0.8"/>
      </g>
     </g>
     <g id="text_31">
      <text style="font-size: 7px; font-family: 'DejaVu Sans', sans-serif; text-anchor: end" x="374.234162" y="58.048672" transform="rotate(-0 374.234162 58.048672)">1.0</text>
     </g>
    </g>
    <g id="text_32">
     <text style="font-size: 7.5px; font-family: 'DejaVu Sans', sans-serif; text-anchor: middle; fill: #243747" x="357.300217" y="101.088" transform="rotate(-90 357.300217 101.088)">ROC AUC</text>
    </g>
   </g>
   <g id="FillBetweenPolyCollection_7">
    <defs>
     <path id="meba013d007" d="M 386.9977 -132.092503 
L 386.9977 -109.914194 
L 401.406545 -110.897636 
L 415.815391 -110.286376 
L 444.633081 -105.302191 
L 502.268462 -95.026919 
L 502.268462 -116.900022 
L 502.268462 -116.900022 
L 444.633081 -125.547528 
L 415.815391 -130.160379 
L 401.406545 -131.449027 
L 386.9977 -132.092503 
z
"/>
    </defs>
    <g clip-path="url(#p70ca45dc14)">
     <use xlink:href="#meba013d007" x="0" y="194.4" style="fill: #2676b8; fill-opacity: 0.1"/>
    </g>
   </g>
   <g id="FillBetweenPolyCollection_8">
    <defs>
     <path id="m883abc2256" d="M 386.9977 -132.295974 
L 386.9977 -109.507252 
L 401.406545 -110.694165 
L 415.815391 -109.235958 
L 444.633081 -103.130989 
L 502.268462 -89.906239 
L 502.268462 -113.576667 
L 502.268462 -113.576667 
L 444.633081 -124.361463 
L 415.815391 -130.091707 
L 401.406545 -132.024679 
L 386.9977 -132.295974 
z
"/>
    </defs>
    <g clip-path="url(#p70ca45dc14)">
     <use xlink:href="#m883abc2256" x="0" y="194.4" style="fill: #328c86; fill-opacity: 0.1"/>
    </g>
   </g>
   <g id="FillBetweenPolyCollection_9">
    <defs>
     <path id="mf9e99a37e1" d="M 386.9977 -130.566472 
L 386.9977 -107.470002 
L 401.406545 -107.302986 
L 415.815391 -106.75955 
L 444.633081 -102.113635 
L 502.268462 -91.160975 
L 502.268462 -114.662692 
L 502.268462 -114.662692 
L 444.633081 -123.717139 
L 415.815391 -128.803059 
L 401.406545 -129.888237 
L 386.9977 -130.566472 
z
"/>
    </defs>
    <g clip-path="url(#p70ca45dc14)">
     <use xlink:href="#mf9e99a37e1" x="0" y="194.4" style="fill: #937e70; fill-opacity: 0.1"/>
    </g>
   </g>
   <g id="line2d_31">
    <path d="M 386.9977 72.074092 
L 401.406545 71.972357 
L 415.815391 73.091446 
L 444.633081 78.212126 
L 502.268462 87.944809 
" clip-path="url(#p70ca45dc14)" style="fill: none; stroke: #2676b8; stroke-width: 1.4; stroke-linecap: square"/>
    <g clip-path="url(#p70ca45dc14)">
     <use xlink:href="#m54c9f03004" x="386.9977" y="72.074092" style="fill: #2676b8; stroke: #2676b8"/>
     <use xlink:href="#m54c9f03004" x="401.406545" y="71.972357" style="fill: #2676b8; stroke: #2676b8"/>
     <use xlink:href="#m54c9f03004" x="415.815391" y="73.091446" style="fill: #2676b8; stroke: #2676b8"/>
     <use xlink:href="#m54c9f03004" x="444.633081" y="78.212126" style="fill: #2676b8; stroke: #2676b8"/>
     <use xlink:href="#m54c9f03004" x="502.268462" y="87.944809" style="fill: #2676b8; stroke: #2676b8"/>
    </g>
   </g>
   <g id="line2d_32">
    <path d="M 386.9977 72.277563 
L 401.406545 71.768886 
L 415.815391 73.634034 
L 444.633081 79.873803 
L 502.268462 92.183782 
" clip-path="url(#p70ca45dc14)" style="fill: none; stroke: #328c86; stroke-width: 1.4; stroke-linecap: square"/>
    <g clip-path="url(#p70ca45dc14)">
     <use xlink:href="#m96347385e3" x="386.9977" y="72.277563" style="fill: #328c86; stroke: #328c86"/>
     <use xlink:href="#m96347385e3" x="401.406545" y="71.768886" style="fill: #328c86; stroke: #328c86"/>
     <use xlink:href="#m96347385e3" x="415.815391" y="73.634034" style="fill: #328c86; stroke: #328c86"/>
     <use xlink:href="#m96347385e3" x="444.633081" y="79.873803" style="fill: #328c86; stroke: #328c86"/>
     <use xlink:href="#m96347385e3" x="502.268462" y="92.183782" style="fill: #328c86; stroke: #328c86"/>
    </g>
   </g>
   <g id="line2d_33">
    <path d="M 386.9977 74.210535 
L 401.406545 74.6853 
L 415.815391 75.63483 
L 444.633081 80.75551 
L 502.268462 90.895134 
" clip-path="url(#p70ca45dc14)" style="fill: none; stroke-dasharray: 5.18,2.24; stroke-dashoffset: 0; stroke: #937e70; stroke-width: 1.4"/>
    <g clip-path="url(#p70ca45dc14)">
     <use xlink:href="#m6aa8427f97" x="386.9977" y="74.210535" style="fill: #937e70; stroke: #937e70"/>
     <use xlink:href="#m6aa8427f97" x="401.406545" y="74.6853" style="fill: #937e70; stroke: #937e70"/>
     <use xlink:href="#m6aa8427f97" x="415.815391" y="75.63483" style="fill: #937e70; stroke: #937e70"/>
     <use xlink:href="#m6aa8427f97" x="444.633081" y="80.75551" style="fill: #937e70; stroke: #937e70"/>
     <use xlink:href="#m6aa8427f97" x="502.268462" y="90.895134" style="fill: #937e70; stroke: #937e70"/>
    </g>
   </g>
   <g id="patch_9">
    <path d="M 381.234162 149.688 
L 381.234162 52.488 
" style="fill: none; stroke: #7c8992; stroke-width: 0.8; stroke-linejoin: miter; stroke-linecap: square"/>
   </g>
   <g id="patch_10">
    <path d="M 381.234162 149.688 
L 508.032 149.688 
" style="fill: none; stroke: #7c8992; stroke-width: 0.8; stroke-linejoin: miter; stroke-linecap: square"/>
   </g>
   <g id="text_33">
    <text style="font-weight: 700; font-size: 8px; font-family: 'DejaVu Sans', sans-serif; text-anchor: start; fill: #243747" x="381.234162" y="42.488" transform="rotate(-0 381.234162 42.488)">c  Tabular</text>
   </g>
  </g>
  <g id="legend_1">
   <g id="line2d_34">
    <path d="M 147.502688 9.878938 
L 154.302688 9.878938 
L 161.102688 9.878938 
" style="fill: none; stroke: #2676b8; stroke-width: 1.4; stroke-linecap: square"/>
    <g>
     <use xlink:href="#m54c9f03004" x="154.302688" y="9.878938" style="fill: #2676b8; stroke: #2676b8"/>
    </g>
   </g>
   <g id="text_34">
    <text style="font-size: 6.8px; font-family: 'DejaVu Sans', sans-serif; text-anchor: start; fill: #243747" x="166.542687" y="12.258938" transform="rotate(-0 166.542687 12.258938)">Dynamic + enhanced training</text>
   </g>
   <g id="line2d_35">
    <path d="M 147.502688 20.079469 
L 154.302688 20.079469 
L 161.102688 20.079469 
" style="fill: none; stroke: #328c86; stroke-width: 1.4; stroke-linecap: square"/>
    <g>
     <use xlink:href="#m96347385e3" x="154.302688" y="20.079469" style="fill: #328c86; stroke: #328c86"/>
    </g>
   </g>
   <g id="text_35">
    <text style="font-size: 6.8px; font-family: 'DejaVu Sans', sans-serif; text-anchor: start; fill: #243747" x="166.542687" y="22.459469" transform="rotate(-0 166.542687 22.459469)">Equal + enhanced training</text>
   </g>
   <g id="line2d_36">
    <path d="M 282.175625 9.878938 
L 288.975625 9.878938 
L 295.775625 9.878938 
" style="fill: none; stroke-dasharray: 5.18,2.24; stroke-dashoffset: 0; stroke: #937e70; stroke-width: 1.4"/>
    <g>
     <use xlink:href="#m6aa8427f97" x="288.975625" y="9.878938" style="fill: #937e70; stroke: #937e70"/>
    </g>
   </g>
   <g id="text_36">
    <text style="font-size: 6.8px; font-family: 'DejaVu Sans', sans-serif; text-anchor: start; fill: #243747" x="301.215625" y="12.258938" transform="rotate(-0 301.215625 12.258938)">Dynamic + earlier training</text>
   </g>
  </g>
 </g>
 <defs>
  <clipPath id="p5d4269da5e">
   <rect x="38.88" y="52.488" width="126.797838" height="97.2"/>
  </clipPath>
  <clipPath id="pce14dad291">
   <rect x="210.057081" y="52.488" width="126.797838" height="97.2"/>
  </clipPath>
  <clipPath id="p70ca45dc14">
   <rect x="381.234162" y="52.488" width="126.797838" height="97.2"/>
  </clipPath>
 </defs>
</svg>
